<svg xmlns="http://www.w3.org/2000/svg" viewBox="0 0 1919 1078"><defs><style>.cls-1{fill:#fff;}</style></defs><title>DIVERSUS SIGNET Border cut part 2 bw</title><g id="black_bg_wb" data-name="black bg wb"><rect width="1919" height="1078"/></g><g id="Cut_part_2_wb" data-name="Cut part 2 wb"><path class="cls-1" d="M230,1071H1V535.4C133.22,677.59,218,864.53,230,1071Z" transform="translate(0 -2)"/><path class="cls-1" d="M984.52,1071H711.25a148.6,148.6,0,0,1,273.27,0Z" transform="translate(0 -2)"/><path class="cls-1" d="M1152.89,1071H1018.18a89.1,89.1,0,0,1,134.71,0Z" transform="translate(0 -2)"/><path class="cls-1" d="M692.13,1071H231.27c26-103,119.31-179.3,230.43-179.3S666.12,968,692.13,1071Z" transform="translate(0 -2)"/><path class="cls-1" d="M230.23,1075.28c-.07-1.43-.15-2.86-.24-4.28h1.28C230.91,1072.42,230.56,1073.84,230.23,1075.28Z" transform="translate(0 -2)"/><path class="cls-1" d="M984.52,1071h33.66" transform="translate(0 -2)"/></g></svg>