<svg id="Layer_1" data-name="Layer 1" xmlns="http://www.w3.org/2000/svg" viewBox="0 0 928.7 928.7"><defs><style>.cls-1{fill:#fff;}</style></defs><title>DIVERSUS SIGNET Full White</title><circle class="cls-1" cx="464.35" cy="462.44" r="221.66"/><circle class="cls-1" cx="464.35" cy="183.45" r="61.15"/><circle class="cls-1" cx="464.35" cy="84.08" r="38.22"/><circle class="cls-1" cx="464.35" cy="844.62" r="38.22"/><circle class="cls-1" cx="464.35" cy="22.93" r="22.93"/><circle class="cls-1" cx="464.35" cy="905.76" r="22.93"/><circle class="cls-1" cx="464.35" cy="745.25" r="61.15"/><circle class="cls-1" cx="323.9" cy="221.08" r="61.15"/><circle class="cls-1" cx="274.21" cy="135.03" r="38.22"/><circle class="cls-1" cx="654.48" cy="793.67" r="38.22"/><circle class="cls-1" cx="243.64" cy="82.07" r="22.93"/><circle class="cls-1" cx="685.06" cy="846.63" r="22.93"/><circle class="cls-1" cx="604.8" cy="707.62" r="61.15"/><circle class="cls-1" cx="221.08" cy="323.9" r="61.15"/><circle class="cls-1" cx="135.03" cy="274.21" r="38.22"/><circle class="cls-1" cx="793.67" cy="654.48" r="38.22"/><circle class="cls-1" cx="82.07" cy="243.64" r="22.93"/><circle class="cls-1" cx="846.63" cy="685.06" r="22.93"/><circle class="cls-1" cx="707.62" cy="604.8" r="61.15"/><circle class="cls-1" cx="183.45" cy="464.35" r="61.15"/><circle class="cls-1" cx="84.08" cy="464.35" r="38.22"/><circle class="cls-1" cx="844.62" cy="464.35" r="38.22"/><circle class="cls-1" cx="22.93" cy="464.35" r="22.93"/><circle class="cls-1" cx="905.76" cy="464.35" r="22.93"/><circle class="cls-1" cx="745.25" cy="464.35" r="61.15"/><circle class="cls-1" cx="221.08" cy="604.8" r="61.15"/><circle class="cls-1" cx="135.03" cy="654.48" r="38.22"/><circle class="cls-1" cx="793.67" cy="274.21" r="38.22"/><circle class="cls-1" cx="82.07" cy="685.06" r="22.93"/><circle class="cls-1" cx="846.63" cy="243.64" r="22.93"/><circle class="cls-1" cx="707.62" cy="323.9" r="61.15"/><circle class="cls-1" cx="323.9" cy="707.62" r="61.15"/><circle class="cls-1" cx="274.21" cy="793.67" r="38.22"/><circle class="cls-1" cx="654.48" cy="135.03" r="38.22"/><circle class="cls-1" cx="243.64" cy="846.63" r="22.93"/><circle class="cls-1" cx="685.06" cy="82.07" r="22.93"/><circle class="cls-1" cx="604.8" cy="221.08" r="61.15"/></svg>