<svg id="Cut_part_1_bw" data-name="Cut part 1 bw" xmlns="http://www.w3.org/2000/svg" viewBox="0 0 464.35 928.64"><defs><style>.cls-1{fill:#fff;}</style></defs><title>DIVERSUS SIGNET Border cut part 1 wb</title><path class="cls-1" d="M1,295.77H2q9.09,0,18,.8a219.93,219.93,0,0,1,76.18,20.61A219.67,219.67,0,0,1,128,335.75a222.77,222.77,0,0,1,56.92,57.91,222,222,0,0,1,16.42,28.81,220.22,220.22,0,0,1,21,83q.32,6,.32,12,0,7.56-.5,15a220.36,220.36,0,0,1-25.07,88.46q-4.54,8.61-9.82,16.74a222.74,222.74,0,0,1-71.61,69.55q-4.44,2.69-9,5.17a.05.05,0,0,0-.05,0A220.6,220.6,0,0,1,2,739.09V299.58H1" transform="translate(-1 -55.03)"/><path class="cls-1" d="M1,295.77H2V177.31A61.15,61.15,0,0,1,20,296.58a60.82,60.82,0,0,1-18,3H1" transform="translate(-1 -55.03)"/><path class="cls-1" d="M39.22,139.08A38.22,38.22,0,0,1,2,177.29V100.87A38.22,38.22,0,0,1,39.22,139.08Z" transform="translate(-1 -55.03)"/><path class="cls-1" d="M39.22,899.62A38.21,38.21,0,0,1,2,937.82V861.41A38.22,38.22,0,0,1,39.22,899.62Z" transform="translate(-1 -55.03)"/><path class="cls-1" d="M23.93,77.93A22.92,22.92,0,0,1,2,100.83V55A22.93,22.93,0,0,1,23.93,77.93Z" transform="translate(-1 -55.03)"/><path class="cls-1" d="M23.93,960.76A22.93,22.93,0,0,1,2,983.67V937.86A22.93,22.93,0,0,1,23.93,960.76Z" transform="translate(-1 -55.03)"/><path class="cls-1" d="M62.15,800.25A61.15,61.15,0,0,1,2,861.39V739.11A61.15,61.15,0,0,1,62.15,800.25Z" transform="translate(-1 -55.03)"/><circle class="cls-1" cx="190.13" cy="793.64" r="38.22"/><circle class="cls-1" cx="220.71" cy="846.6" r="22.93"/><circle class="cls-1" cx="140.45" cy="707.59" r="61.15"/><circle class="cls-1" cx="329.32" cy="654.45" r="38.22"/><circle class="cls-1" cx="382.28" cy="685.03" r="22.93"/><circle class="cls-1" cx="243.27" cy="604.77" r="61.15"/><circle class="cls-1" cx="380.27" cy="464.32" r="38.22"/><circle class="cls-1" cx="441.42" cy="464.32" r="22.93"/><circle class="cls-1" cx="280.9" cy="464.32" r="61.15"/><circle class="cls-1" cx="329.32" cy="274.18" r="38.22"/><circle class="cls-1" cx="382.28" cy="243.61" r="22.93"/><circle class="cls-1" cx="243.27" cy="323.87" r="61.15"/><circle class="cls-1" cx="190.13" cy="135" r="38.22"/><circle class="cls-1" cx="220.71" cy="82.04" r="22.93"/><circle class="cls-1" cx="140.45" cy="221.05" r="61.15"/><path d="M2,100.83v0H1C1.34,100.86,1.67,100.85,2,100.83Z" transform="translate(-1 -55.03)"/><path d="M1,177.3H2v0Z" transform="translate(-1 -55.03)"/><path d="M1,295.77H2v3.8H1" transform="translate(-1 -55.03)"/><path d="M1,739.1H2v0Z" transform="translate(-1 -55.03)"/><path d="M1,861.4H2v0Z" transform="translate(-1 -55.03)"/><path d="M1,937.83H2v0C1.67,937.84,1.34,937.83,1,937.83Z" transform="translate(-1 -55.03)"/></svg>