<?xml version="1.0" standalone="no"?>
<!DOCTYPE svg PUBLIC "-//W3C//DTD SVG 20010904//EN"
 "http://www.w3.org/TR/2001/REC-SVG-20010904/DTD/svg10.dtd">
<svg version="1.0" xmlns="http://www.w3.org/2000/svg"
 width="840.000000pt" height="748.000000pt" viewBox="0 0 840.000000 748.000000"
 preserveAspectRatio="xMidYMid meet">
<metadata>
Created by potrace 1.15, written by Peter Selinger 2001-2017
</metadata>
<g transform="translate(0.000000,748.000000) scale(0.100000,-0.100000)"
fill="#1d2435" stroke="none">
<path d="M0 3740 l0 -3740 4200 0 4200 0 0 3740 0 3740 -4200 0 -4200 0 0
-3740z m4355 3507 c112 -55 131 -205 38 -292 -16 -14 -33 -25 -40 -25 -27 0
-11 -17 26 -29 22 -6 65 -34 95 -62 154 -141 118 -383 -70 -475 l-56 -27 52
-14 c125 -32 243 -130 302 -250 32 -66 33 -71 33 -198 0 -119 -2 -135 -26
-185 -39 -83 -98 -150 -179 -206 -68 -46 -71 -49 -44 -52 114 -12 398 -91 472
-131 28 -15 28 -10 -3 34 -51 77 -69 142 -69 255 -1 92 3 113 27 170 51 122
154 224 269 266 61 23 220 29 286 11 l52 -14 -23 31 c-51 67 -61 97 -61 186
-1 75 3 91 29 138 33 60 81 102 151 133 39 18 61 21 125 17 l77 -5 -19 36
c-12 22 -19 56 -19 88 0 43 5 59 33 94 44 58 90 81 149 76 94 -8 168 -87 168
-180 0 -87 -86 -170 -176 -170 l-43 0 30 -35 c74 -84 93 -203 47 -302 -36 -79
-70 -115 -143 -151 -58 -28 -71 -31 -137 -27 l-73 4 47 -47 c217 -220 147
-600 -136 -739 -61 -30 -81 -35 -173 -40 l-105 -5 63 -52 c95 -77 200 -182
267 -266 l60 -75 4 96 c3 83 8 107 36 165 41 89 78 135 153 191 156 117 389
118 546 2 33 -24 69 -56 81 -71 l22 -28 -7 34 c-29 129 34 264 152 324 106 54
247 35 331 -46 l31 -30 -5 30 c-9 62 39 145 101 178 39 20 115 20 154 0 72
-38 115 -129 94 -199 -7 -21 -26 -55 -44 -75 -58 -66 -132 -80 -209 -39 l-46
24 10 -36 c25 -90 -18 -221 -93 -286 -102 -87 -270 -90 -376 -6 -14 11 -27 19
-29 18 -1 -2 4 -28 12 -58 40 -154 -6 -317 -123 -436 -164 -167 -415 -185
-613 -44 l-28 20 30 -73 c44 -108 85 -255 98 -349 6 -45 14 -98 16 -116 l5
-33 30 61 c49 96 118 164 218 213 86 42 86 42 202 42 l116 0 84 -42 c49 -24
101 -60 126 -85 58 -60 110 -150 123 -215 l12 -55 25 54 c30 66 74 112 138
146 42 23 63 27 130 27 70 -1 87 -4 134 -30 65 -36 114 -92 140 -159 11 -28
20 -45 20 -39 1 21 69 90 101 103 44 18 130 8 169 -19 96 -69 94 -223 -5 -290
-79 -54 -190 -31 -243 52 l-25 38 -14 -38 c-30 -78 -76 -127 -157 -170 -40
-21 -64 -27 -120 -27 -116 -1 -211 59 -264 165 l-30 60 -7 -38 c-11 -67 -66
-165 -125 -224 -166 -166 -419 -183 -612 -42 -50 37 -130 140 -148 192 -16 44
-25 31 -33 -45 -13 -129 -80 -354 -141 -474 l-28 -55 43 39 c23 21 71 51 105
68 184 86 387 49 531 -97 66 -67 95 -118 119 -210 22 -84 17 -196 -11 -269 -5
-14 6 -10 47 17 99 65 193 72 296 21 111 -54 172 -165 159 -291 l-7 -63 38 20
c131 70 292 -55 254 -198 -47 -172 -285 -175 -342 -5 -6 19 -9 49 -6 67 l5 31
-38 -36 c-102 -98 -296 -92 -399 12 -67 68 -101 187 -78 272 7 27 4 25 -41
-20 -202 -202 -553 -169 -711 68 -61 92 -85 179 -79 294 l5 93 -45 -61 c-67
-92 -215 -239 -320 -319 -51 -39 -91 -72 -90 -74 2 -1 26 2 53 8 28 5 80 7
116 4 175 -15 309 -110 387 -273 30 -64 36 -90 40 -159 3 -46 -1 -104 -7 -128
-19 -77 -70 -171 -120 -222 l-48 -49 78 3 c91 4 142 -14 207 -73 115 -103 126
-271 26 -402 l-25 -33 32 0 c54 0 118 -38 150 -88 59 -93 26 -198 -78 -248
-41 -21 -60 -25 -92 -19 -53 9 -113 54 -135 100 -24 50 -18 130 12 173 l22 31
-32 -10 c-99 -28 -198 1 -279 80 -47 46 -60 67 -74 115 -29 99 -12 189 52 274
13 17 23 32 21 32 -2 0 -25 -7 -52 -15 -64 -20 -178 -19 -247 1 -132 39 -254
148 -304 270 -67 167 -32 361 87 490 l41 45 -66 -30 c-156 -70 -332 -119 -515
-142 l-92 -12 64 -21 c116 -39 209 -124 268 -244 32 -64 33 -70 33 -192 0
-125 0 -126 -38 -202 -61 -124 -147 -198 -285 -244 l-64 -22 36 -12 c59 -19
142 -102 165 -166 40 -105 21 -217 -50 -298 -40 -45 -126 -96 -163 -96 -14 0
-7 -7 20 -19 120 -55 131 -222 20 -305 -39 -30 -153 -30 -192 0 -111 83 -100
250 20 305 27 12 34 19 20 19 -37 0 -123 51 -163 96 -71 81 -90 193 -50 298
23 64 106 147 165 166 l36 12 -64 22 c-138 46 -224 120 -285 244 -38 76 -38
77 -38 202 0 122 1 128 33 192 59 120 152 205 268 244 l64 21 -92 12 c-183 23
-359 72 -515 142 l-66 30 41 -45 c119 -129 154 -323 87 -490 -50 -122 -172
-231 -304 -270 -69 -20 -183 -21 -247 -1 -27 8 -50 15 -52 15 -2 0 8 -15 21
-32 64 -85 81 -175 52 -274 -14 -48 -27 -69 -74 -115 -81 -79 -180 -108 -279
-80 l-32 10 22 -31 c30 -43 36 -123 12 -173 -22 -46 -82 -91 -135 -100 -32 -6
-51 -2 -92 19 -104 50 -137 155 -78 248 32 50 96 88 150 88 l32 0 -25 33
c-100 131 -89 299 26 402 65 59 116 77 207 73 l78 -3 -48 49 c-50 51 -101 145
-120 222 -6 24 -10 82 -7 128 4 69 10 95 40 159 78 163 212 258 387 273 36 3
88 1 116 -4 27 -6 51 -9 53 -8 1 2 -39 35 -90 74 -105 80 -253 227 -320 319
l-45 61 5 -93 c4 -76 1 -106 -17 -163 -49 -161 -182 -288 -339 -321 -162 -34
-324 12 -434 122 -45 45 -48 47 -41 20 23 -85 -11 -204 -78 -272 -103 -104
-297 -110 -399 -12 l-38 36 5 -31 c3 -18 0 -48 -6 -67 -57 -170 -295 -167
-342 5 -38 143 123 268 254 198 l38 -20 -7 63 c-13 126 48 237 159 291 103 51
197 44 296 -21 41 -27 52 -31 47 -17 -28 73 -33 185 -11 269 24 92 53 143 119
210 143 145 347 183 530 97 35 -16 83 -47 106 -68 l43 -39 -28 55 c-61 120
-128 345 -141 474 -8 76 -17 89 -33 45 -18 -52 -98 -155 -148 -192 -193 -141
-446 -124 -612 42 -59 59 -114 157 -125 224 l-7 38 -30 -60 c-53 -106 -148
-166 -264 -165 -56 0 -80 6 -120 27 -81 43 -127 92 -157 170 l-14 38 -25 -38
c-94 -146 -319 -81 -319 91 0 58 29 117 71 147 39 27 125 37 169 19 32 -13
100 -82 101 -103 0 -6 9 11 20 39 26 67 75 123 140 159 47 26 64 29 134 30 67
0 88 -4 130 -27 64 -34 108 -80 138 -146 l25 -54 12 55 c13 65 65 155 123 215
25 25 77 61 126 85 l84 42 116 0 c116 0 116 0 202 -42 100 -49 169 -117 218
-213 l30 -61 5 33 c2 18 10 71 16 116 13 94 54 241 98 349 l30 73 -28 -20
c-198 -141 -449 -123 -613 44 -117 119 -163 282 -123 436 8 30 13 56 12 58 -2
1 -15 -7 -29 -18 -106 -84 -274 -81 -376 6 -75 65 -118 196 -93 286 l10 36
-46 -24 c-77 -41 -151 -27 -209 39 -18 20 -37 54 -44 75 -21 70 22 161 94 199
39 20 115 20 154 0 62 -33 110 -116 101 -178 l-5 -30 31 30 c84 81 225 100
331 46 118 -60 181 -195 152 -324 l-7 -34 22 28 c12 15 48 47 81 71 157 116
390 115 546 -2 75 -56 112 -102 153 -191 28 -58 33 -82 36 -165 l4 -96 60 75
c67 84 172 189 267 266 l63 52 -105 5 c-92 5 -112 10 -173 40 -283 139 -353
519 -136 739 l47 47 -73 -4 c-66 -4 -79 -1 -137 27 -73 36 -107 72 -143 151
-46 99 -27 218 47 302 l30 35 -43 0 c-90 0 -176 83 -176 170 0 93 74 172 168
180 59 5 105 -18 150 -76 27 -35 32 -51 32 -94 0 -32 -7 -66 -19 -88 l-19 -36
77 5 c64 4 86 1 125 -17 70 -31 118 -73 151 -133 26 -47 30 -63 29 -138 0 -89
-10 -119 -61 -186 l-23 -31 52 14 c66 18 225 12 286 -11 115 -42 218 -144 269
-266 24 -57 28 -78 27 -170 0 -113 -18 -178 -69 -255 -31 -44 -31 -49 -3 -34
74 40 358 119 472 131 27 3 24 6 -44 52 -81 56 -140 123 -179 206 -24 50 -26
66 -26 185 0 127 1 132 33 198 59 120 177 218 302 250 l52 14 -56 27 c-188 92
-224 334 -70 475 30 28 73 56 95 62 37 12 53 29 26 29 -18 0 -64 46 -83 82
-21 40 -21 116 -1 155 21 39 71 81 105 89 15 3 32 7 37 9 14 4 67 -6 90 -18z"/>
</g>
</svg>
